<svg xmlns="http://www.w3.org/2000/svg" viewBox="0 -0.7 31.44 29" id="user" fill="#333333">
  <title>user</title>
  <path stroke-width="1.3" stroke="#333333" stroke-miterlimit="10" d="M15.72,17C11.64,17,8.59,12,8.59,7.6s3-7.6,7.12-7.6,7.13,3.2,7.13,7.6S19.79,17,15.72,17Zm0-15.46C12.4,1.5,10.09,4,10.09,7.6c0,4,2.73,7.86,5.63,7.86s5.63-3.82,5.63-7.86C21.34,4,19,1.5,15.72,1.5Z"/>
  <path stroke-width="1.3" stroke="#333333" stroke-miterlimit="10" d="M31.21,26.9C29.65,20.38,26,16.13,21.49,15.45a10,10,0,0,1-1.27,1.37v0c4.13,0,7.64,3.61,9.3,9.49H1.91c1.77-6.81,4.47-9.49,9.43-9.49v0a10,10,0,0,1-1.3-1.4c-6.37.65-8.55,6.13-9.82,11.5L0,27.83H31.44Z"/>
</svg>
